<?xml version="1.0" encoding="UTF-8"?>
<svg xmlns="http://www.w3.org/2000/svg" xmlns:xlink="http://www.w3.org/1999/xlink" viewBox="0 0 144 144" width="144px" height="144px">
<g id="surface14043090">
<rect x="0" y="0" width="144" height="144" style="fill:rgb(90.196079%,49.411765%,13.333334%);fill-opacity:1;stroke:none;"/>
<path style=" stroke:none;fill-rule:nonzero;fill:rgb(0%,0%,0%);fill-opacity:1;" d="M 71.730469 6.75 C 62.238281 6.78125 52.605469 8.894531 43.492188 13.320312 C 27.9375 20.878906 16.019531 34.308594 10.367188 50.652344 C -1.433594 84.683594 16.59375 121.835938 50.628906 133.632812 C 84.664062 145.429688 121.816406 127.402344 133.617188 93.371094 C 139.339844 77.011719 138.269531 59.039062 130.644531 43.476562 C 119.332031 20.191406 95.992188 6.671875 71.730469 6.75 Z M 70.949219 11.21875 C 77.878906 11.097656 84.949219 12.175781 91.878906 14.578125 C 107.09375 19.851562 119.589844 30.949219 126.621094 45.433594 C 133.652344 59.921875 134.632812 76.609375 129.363281 91.824219 C 118.378906 123.503906 83.796875 140.285156 52.113281 129.304688 C 20.433594 118.324219 3.652344 83.738281 14.632812 52.058594 C 23.210938 27.304688 46.195312 11.648438 70.949219 11.21875 Z M 71.1875 18.714844 C 69.308594 18.6875 67.429688 18.765625 65.558594 18.941406 C 64.316406 18.980469 63.34375 20.019531 63.386719 21.261719 C 63.425781 22.503906 64.46875 23.472656 65.707031 23.429688 C 65.800781 23.429688 65.894531 23.421875 65.988281 23.40625 C 67.679688 23.230469 69.378906 23.144531 71.078125 23.148438 C 72.308594 22.980469 73.164062 21.84375 72.992188 20.613281 C 72.859375 19.660156 72.132812 18.894531 71.1875 18.714844 Z M 56.367188 20.796875 C 56.078125 20.761719 55.773438 20.789062 55.476562 20.878906 C 39.644531 25.695312 27.058594 37.773438 21.59375 53.394531 C 21.152344 54.554688 21.738281 55.851562 22.898438 56.292969 C 24.0625 56.734375 25.359375 56.152344 25.800781 54.992188 C 25.816406 54.953125 25.828125 54.914062 25.839844 54.875 L 25.761719 54.953125 C 30.746094 40.648438 42.273438 29.582031 56.769531 25.183594 C 57.957031 24.828125 58.632812 23.574219 58.277344 22.386719 C 58.007812 21.492188 57.238281 20.890625 56.367188 20.792969 Z M 101.109375 33.1875 C 95.75 33.1875 91.410156 37.53125 91.410156 42.890625 C 91.410156 48.25 95.753906 52.597656 101.109375 52.597656 C 102.492188 52.597656 103.800781 52.296875 104.988281 51.777344 L 97.871094 44.421875 C 97.722656 44.265625 97.640625 44.058594 97.652344 43.84375 C 97.65625 43.628906 97.753906 43.429688 97.914062 43.285156 L 106.953125 35.191406 C 105.324219 33.953125 103.3125 33.1875 101.109375 33.1875 Z M 108.140625 36.238281 L 99.570312 43.914062 L 106.421875 50.996094 C 109.0625 49.257812 110.808594 46.285156 110.808594 42.890625 C 110.808594 40.308594 109.785156 37.976562 108.140625 36.238281 Z M 107.960938 40.84375 C 108.265625 40.824219 108.5625 40.984375 108.707031 41.273438 C 108.746094 41.355469 109.707031 43.339844 108.421875 45.914062 C 108.285156 46.191406 108.007812 46.347656 107.71875 46.347656 C 107.601562 46.347656 107.480469 46.320312 107.367188 46.265625 C 106.976562 46.070312 106.820312 45.601562 107.015625 45.210938 C 107.9375 43.371094 107.320312 42.023438 107.296875 41.96875 C 107.113281 41.578125 107.273438 41.109375 107.660156 40.921875 C 107.757812 40.875 107.859375 40.847656 107.960938 40.84375 Z M 88.667969 48.730469 C 87.222656 48.792969 85.578125 49.144531 83.8125 49.78125 C 76.78125 52.3125 68.34375 61.59375 68.34375 61.59375 L 61.578125 69.441406 L 67.132812 74.902344 L 92.351562 49.417969 C 91.367188 48.898438 90.113281 48.667969 88.667969 48.730469 Z M 93.605469 50.390625 L 68.25 76.007812 L 71.523438 79.230469 L 90.5625 59.917969 C 90.617188 59.867188 94.722656 55.8125 94.523438 52.214844 C 94.335938 51.503906 94.03125 50.886719 93.601562 50.390625 Z M 93.984375 58.222656 C 92.890625 59.828125 91.765625 60.945312 91.671875 61.035156 L 72.644531 80.328125 L 75.171875 82.816406 C 75.429688 82.582031 75.675781 82.363281 75.933594 82.125 C 89.640625 69.414062 92.527344 63.988281 93.984375 58.222656 Z M 60.542969 70.636719 L 54.28125 77.90625 L 65.765625 75.769531 Z M 66.871094 76.855469 L 62.917969 80.953125 L 69.9375 79.871094 Z M 71.335938 81.25 L 61.109375 82.824219 L 42.363281 102.226562 L 50.230469 109.960938 L 50.625 109.96875 L 48.65625 101.8125 C 48.65625 101.8125 59.503906 96.886719 74.007812 83.871094 Z M 116.421875 83.523438 C 115.558594 83.679688 114.832031 84.335938 114.632812 85.246094 C 114.378906 86.386719 115.035156 87.53125 116.152344 87.882812 L 120.492188 89.042969 C 121.707031 89.3125 122.910156 88.550781 123.179688 87.335938 C 123.433594 86.195312 122.769531 85.050781 121.652344 84.699219 L 117.316406 83.539062 C 117.011719 83.472656 116.707031 83.46875 116.421875 83.523438 Z M 112.597656 94.113281 C 111.722656 94.035156 110.847656 94.476562 110.414062 95.300781 C 109.859375 96.34375 110.207031 97.636719 111.210938 98.261719 L 115.105469 100.503906 C 116.191406 101.121094 117.570312 100.742188 118.191406 99.660156 C 118.808594 98.574219 118.433594 97.191406 117.347656 96.574219 L 113.453125 94.367188 C 113.179688 94.222656 112.886719 94.140625 112.597656 94.113281 Z M 105.371094 103.121094 C 104.796875 103.121094 104.226562 103.34375 103.785156 103.78125 C 102.90625 104.660156 102.90625 106.082031 103.785156 106.957031 L 106.960938 110.140625 C 107.839844 111.019531 109.261719 111.019531 110.140625 110.140625 C 111.019531 109.261719 111.019531 107.835938 110.140625 106.957031 L 106.960938 103.78125 C 106.523438 103.34375 105.945312 103.121094 105.371094 103.121094 Z M 41.269531 103.359375 L 35.15625 109.6875 L 47.945312 109.921875 Z M 96.007812 110.109375 C 95.71875 110.144531 95.4375 110.238281 95.167969 110.394531 C 94.097656 111.019531 93.734375 112.394531 94.355469 113.46875 L 96.582031 117.34375 C 97.164062 118.441406 98.523438 118.855469 99.621094 118.273438 C 100.71875 117.691406 101.132812 116.332031 100.550781 115.238281 C 100.527344 115.191406 100.503906 115.144531 100.476562 115.101562 L 98.234375 111.207031 C 97.765625 110.40625 96.875 110 96.007812 110.109375 Z M 86.03125 114.496094 C 85.742188 114.453125 85.445312 114.464844 85.144531 114.542969 C 85.140625 114.546875 85.136719 114.542969 85.136719 114.542969 C 83.9375 114.863281 83.21875 116.097656 83.539062 117.300781 C 83.542969 117.304688 83.542969 117.304688 83.542969 117.3125 L 84.703125 121.652344 C 85.074219 122.839844 86.339844 123.496094 87.519531 123.125 C 88.636719 122.777344 89.300781 121.632812 89.046875 120.492188 L 87.886719 116.152344 C 87.652344 115.25 86.898438 114.621094 86.03125 114.496094 Z M 86.03125 114.496094 "/>
</g>
</svg>
